<mxfile host="app.diagrams.net" modified="2023-08-23T06:44:09.783Z" agent="Mozilla/5.0 (Macintosh; Intel Mac OS X 10_15_7) AppleWebKit/537.36 (KHTML, like Gecko) Chrome/116.0.0.0 Safari/537.36" etag="dZmdQvk26G1RadnLZKn4" version="21.6.9" type="github">
  <diagram name="第 1 页" id="_uQN_7atDGiNSejN_JOg">
    <mxGraphModel dx="2261" dy="799" grid="1" gridSize="10" guides="1" tooltips="1" connect="1" arrows="1" fold="1" page="1" pageScale="1" pageWidth="827" pageHeight="1169" math="0" shadow="0">
      <root>
        <mxCell id="0" />
        <mxCell id="1" parent="0" />
        <mxCell id="BLwkt3QH4of1J2cDB1tl-2" value="&lt;b&gt;&lt;font style=&quot;font-size: 15px;&quot;&gt;动态出价计算逻辑&lt;/font&gt;&lt;/b&gt;" style="rounded=1;whiteSpace=wrap;html=1;strokeWidth=2;fillWeight=4;hachureGap=8;hachureAngle=45;fillColor=#dae8fc;strokeColor=#6c8ebf;" parent="1" vertex="1">
          <mxGeometry x="-200" y="160" width="160" height="80" as="geometry" />
        </mxCell>
        <mxCell id="BLwkt3QH4of1J2cDB1tl-3" value="&lt;b&gt;&lt;font style=&quot;font-size: 15px;&quot;&gt;bid&lt;/font&gt;&lt;/b&gt;" style="rounded=1;whiteSpace=wrap;html=1;strokeWidth=2;fillWeight=4;hachureGap=8;hachureAngle=45;fillColor=#d5e8d4;strokeColor=#FF0000;" parent="1" vertex="1">
          <mxGeometry x="-180" y="320" width="120" height="80" as="geometry" />
        </mxCell>
        <mxCell id="BLwkt3QH4of1J2cDB1tl-8" value="" style="endArrow=classic;startArrow=classic;html=1;rounded=0;strokeWidth=1;" parent="1" source="BLwkt3QH4of1J2cDB1tl-3" target="BLwkt3QH4of1J2cDB1tl-2" edge="1">
          <mxGeometry width="50" height="50" relative="1" as="geometry">
            <mxPoint x="-180" y="360" as="sourcePoint" />
            <mxPoint x="200" y="440" as="targetPoint" />
          </mxGeometry>
        </mxCell>
        <mxCell id="BLwkt3QH4of1J2cDB1tl-9" value="竞价数据，转化数据" style="text;strokeColor=none;fillColor=none;html=1;fontSize=12;fontStyle=0;verticalAlign=middle;align=center;" parent="1" vertex="1">
          <mxGeometry x="-120" y="260" width="120" height="40" as="geometry" />
        </mxCell>
        <mxCell id="BLwkt3QH4of1J2cDB1tl-11" value="&lt;span style=&quot;font-size: 15px;&quot;&gt;&lt;b&gt;imp/click/event&lt;/b&gt;&lt;/span&gt;" style="rounded=1;whiteSpace=wrap;html=1;strokeWidth=2;fillWeight=4;hachureGap=8;hachureAngle=45;fillColor=#d5e8d4;strokeColor=#FF0000;" parent="1" vertex="1">
          <mxGeometry x="340" y="320" width="160" height="80" as="geometry" />
        </mxCell>
        <mxCell id="BLwkt3QH4of1J2cDB1tl-12" value="redis" style="rounded=1;whiteSpace=wrap;html=1;strokeWidth=2;fillWeight=4;hachureGap=8;hachureAngle=45;fillColor=#f8cecc;sketch=1;strokeColor=#b85450;fontStyle=1;fontSize=15;" parent="1" vertex="1">
          <mxGeometry x="320" y="500" width="120" height="40" as="geometry" />
        </mxCell>
        <mxCell id="BLwkt3QH4of1J2cDB1tl-13" value="&lt;span style=&quot;font-size: 15px;&quot;&gt;&lt;b&gt;dispatch&lt;/b&gt;&lt;/span&gt;" style="rounded=1;whiteSpace=wrap;html=1;strokeWidth=2;fillWeight=4;hachureGap=8;hachureAngle=45;fillColor=#d5e8d4;strokeColor=#FF0000;" parent="1" vertex="1">
          <mxGeometry x="60" y="320" width="120" height="80" as="geometry" />
        </mxCell>
        <mxCell id="BLwkt3QH4of1J2cDB1tl-15" value="" style="endArrow=classic;html=1;rounded=0;exitX=0.25;exitY=1;exitDx=0;exitDy=0;entryX=0.5;entryY=0;entryDx=0;entryDy=0;" parent="1" source="BLwkt3QH4of1J2cDB1tl-11" target="BLwkt3QH4of1J2cDB1tl-12" edge="1">
          <mxGeometry width="50" height="50" relative="1" as="geometry">
            <mxPoint x="-40" y="730" as="sourcePoint" />
            <mxPoint x="10" y="680" as="targetPoint" />
          </mxGeometry>
        </mxCell>
        <mxCell id="BLwkt3QH4of1J2cDB1tl-16" value="&lt;span style=&quot;font-size: 15px;&quot;&gt;&lt;b&gt;ana_watch&lt;/b&gt;&lt;/span&gt;" style="rounded=1;whiteSpace=wrap;html=1;strokeWidth=2;fillWeight=4;hachureGap=8;hachureAngle=45;fillColor=#d5e8d4;strokeColor=#FF0000;" parent="1" vertex="1">
          <mxGeometry x="60" y="480" width="120" height="80" as="geometry" />
        </mxCell>
        <mxCell id="BLwkt3QH4of1J2cDB1tl-17" value="" style="endArrow=classic;html=1;rounded=0;exitX=0.5;exitY=0;exitDx=0;exitDy=0;entryX=0.5;entryY=1;entryDx=0;entryDy=0;" parent="1" source="BLwkt3QH4of1J2cDB1tl-16" target="BLwkt3QH4of1J2cDB1tl-13" edge="1">
          <mxGeometry width="50" height="50" relative="1" as="geometry">
            <mxPoint x="430" y="410" as="sourcePoint" />
            <mxPoint x="430" y="490" as="targetPoint" />
          </mxGeometry>
        </mxCell>
        <mxCell id="BLwkt3QH4of1J2cDB1tl-18" value="" style="endArrow=classic;startArrow=classic;html=1;rounded=0;strokeWidth=1;exitX=1;exitY=0.5;exitDx=0;exitDy=0;entryX=0;entryY=0.5;entryDx=0;entryDy=0;" parent="1" source="BLwkt3QH4of1J2cDB1tl-16" target="BLwkt3QH4of1J2cDB1tl-12" edge="1">
          <mxGeometry width="50" height="50" relative="1" as="geometry">
            <mxPoint x="260" y="790" as="sourcePoint" />
            <mxPoint x="310" y="740" as="targetPoint" />
          </mxGeometry>
        </mxCell>
        <mxCell id="BLwkt3QH4of1J2cDB1tl-19" value="转化数据" style="text;strokeColor=none;fillColor=none;html=1;fontSize=12;fontStyle=0;verticalAlign=middle;align=center;" parent="1" vertex="1">
          <mxGeometry x="190" y="480" width="120" height="40" as="geometry" />
        </mxCell>
        <mxCell id="BLwkt3QH4of1J2cDB1tl-20" value="&lt;span style=&quot;font-size: 15px;&quot;&gt;&lt;b&gt;mongo&lt;/b&gt;&lt;/span&gt;" style="rounded=1;whiteSpace=wrap;html=1;strokeWidth=2;fillWeight=4;hachureGap=8;hachureAngle=45;fillColor=#d5e8d4;strokeColor=#FF0000;" parent="1" vertex="1">
          <mxGeometry x="60" y="160" width="120" height="80" as="geometry" />
        </mxCell>
        <mxCell id="BLwkt3QH4of1J2cDB1tl-22" value="" style="endArrow=classic;startArrow=classic;html=1;rounded=0;strokeWidth=1;exitX=1;exitY=0.5;exitDx=0;exitDy=0;entryX=0;entryY=0.5;entryDx=0;entryDy=0;" parent="1" source="BLwkt3QH4of1J2cDB1tl-3" target="BLwkt3QH4of1J2cDB1tl-13" edge="1">
          <mxGeometry width="50" height="50" relative="1" as="geometry">
            <mxPoint x="-30" y="360" as="sourcePoint" />
            <mxPoint x="20" y="310" as="targetPoint" />
          </mxGeometry>
        </mxCell>
        <mxCell id="BLwkt3QH4of1J2cDB1tl-24" value="转化数据" style="text;strokeColor=none;fillColor=none;html=1;fontSize=12;fontStyle=0;verticalAlign=middle;align=center;" parent="1" vertex="1">
          <mxGeometry x="-60" y="320" width="120" height="40" as="geometry" />
        </mxCell>
        <mxCell id="BLwkt3QH4of1J2cDB1tl-25" value="" style="endArrow=classic;startArrow=classic;html=1;rounded=0;entryX=0.5;entryY=1;entryDx=0;entryDy=0;exitX=0.5;exitY=0;exitDx=0;exitDy=0;" parent="1" source="BLwkt3QH4of1J2cDB1tl-13" target="BLwkt3QH4of1J2cDB1tl-20" edge="1">
          <mxGeometry width="50" height="50" relative="1" as="geometry">
            <mxPoint x="-30" y="550" as="sourcePoint" />
            <mxPoint x="20" y="500" as="targetPoint" />
          </mxGeometry>
        </mxCell>
        <mxCell id="BLwkt3QH4of1J2cDB1tl-27" value="&lt;span style=&quot;font-size: 15px;&quot;&gt;&lt;b&gt;front_end&lt;/b&gt;&lt;/span&gt;" style="rounded=1;whiteSpace=wrap;html=1;strokeWidth=2;fillWeight=4;hachureGap=8;hachureAngle=45;fillColor=#d5e8d4;strokeColor=#82b366;" parent="1" vertex="1">
          <mxGeometry x="500" y="160" width="120" height="80" as="geometry" />
        </mxCell>
        <mxCell id="BLwkt3QH4of1J2cDB1tl-28" value="" style="endArrow=classic;startArrow=classic;html=1;rounded=0;strokeWidth=1;exitX=1;exitY=0.5;exitDx=0;exitDy=0;entryX=0;entryY=0.5;entryDx=0;entryDy=0;" parent="1" source="BLwkt3QH4of1J2cDB1tl-20" target="BLwkt3QH4of1J2cDB1tl-27" edge="1">
          <mxGeometry width="50" height="50" relative="1" as="geometry">
            <mxPoint x="230" y="480" as="sourcePoint" />
            <mxPoint x="280" y="430" as="targetPoint" />
          </mxGeometry>
        </mxCell>
        <mxCell id="BLwkt3QH4of1J2cDB1tl-29" value="" style="html=1;verticalLabelPosition=bottom;align=center;labelBackgroundColor=#ffffff;verticalAlign=top;strokeWidth=2;strokeColor=#0080F0;shadow=0;dashed=0;shape=mxgraph.ios7.icons.eye;fontStyle=1;fontSize=15;" parent="1" vertex="1">
          <mxGeometry x="620" y="120" width="40" height="20" as="geometry" />
        </mxCell>
        <mxCell id="BLwkt3QH4of1J2cDB1tl-32" value="" style="endArrow=classic;html=1;rounded=0;exitX=0.5;exitY=1;exitDx=0;exitDy=0;entryX=0.5;entryY=0;entryDx=0;entryDy=0;" parent="1" source="BLwkt3QH4of1J2cDB1tl-3" target="BLwkt3QH4of1J2cDB1tl-76" edge="1">
          <mxGeometry width="50" height="50" relative="1" as="geometry">
            <mxPoint x="130" y="650" as="sourcePoint" />
            <mxPoint x="-90" y="780" as="targetPoint" />
          </mxGeometry>
        </mxCell>
        <mxCell id="BLwkt3QH4of1J2cDB1tl-36" value="" style="endArrow=classic;html=1;rounded=0;exitX=0.75;exitY=1;exitDx=0;exitDy=0;" parent="1" source="BLwkt3QH4of1J2cDB1tl-11" target="BLwkt3QH4of1J2cDB1tl-67" edge="1">
          <mxGeometry width="50" height="50" relative="1" as="geometry">
            <mxPoint x="390" y="410" as="sourcePoint" />
            <mxPoint x="460" y="640" as="targetPoint" />
          </mxGeometry>
        </mxCell>
        <mxCell id="BLwkt3QH4of1J2cDB1tl-60" value="&lt;span style=&quot;font-size: 15px;&quot;&gt;&lt;b&gt;bidlog&lt;/b&gt;&lt;/span&gt;" style="rounded=1;whiteSpace=wrap;html=1;strokeWidth=2;fillWeight=4;hachureGap=8;hachureAngle=45;fillColor=#d5e8d4;strokeColor=#82b366;" parent="1" vertex="1">
          <mxGeometry x="-180" y="640" width="120" height="80" as="geometry" />
        </mxCell>
        <mxCell id="BLwkt3QH4of1J2cDB1tl-61" value="&lt;span style=&quot;font-size: 15px;&quot;&gt;&lt;b&gt;查询服务&lt;/b&gt;&lt;/span&gt;" style="rounded=1;whiteSpace=wrap;html=1;strokeWidth=2;fillWeight=4;hachureGap=8;hachureAngle=45;fillColor=#d5e8d4;strokeColor=#82b366;" parent="1" vertex="1">
          <mxGeometry x="500" y="880" width="120" height="80" as="geometry" />
        </mxCell>
        <mxCell id="BLwkt3QH4of1J2cDB1tl-64" value="&lt;span style=&quot;font-size: 15px;&quot;&gt;&lt;b&gt;transfer&lt;/b&gt;&lt;/span&gt;" style="rounded=1;whiteSpace=wrap;html=1;strokeWidth=2;fillWeight=4;hachureGap=8;hachureAngle=45;fillColor=#d5e8d4;strokeColor=#82b366;" parent="1" vertex="1">
          <mxGeometry x="400" y="680" width="120" height="80" as="geometry" />
        </mxCell>
        <mxCell id="BLwkt3QH4of1J2cDB1tl-66" value="" style="endArrow=classic;html=1;rounded=0;exitX=0;exitY=0.5;exitDx=0;exitDy=0;entryX=1;entryY=0.5;entryDx=0;entryDy=0;entryPerimeter=0;" parent="1" source="BLwkt3QH4of1J2cDB1tl-61" target="BLwkt3QH4of1J2cDB1tl-75" edge="1">
          <mxGeometry width="50" height="50" relative="1" as="geometry">
            <mxPoint x="110" y="870" as="sourcePoint" />
            <mxPoint x="380" y="1220" as="targetPoint" />
          </mxGeometry>
        </mxCell>
        <mxCell id="BLwkt3QH4of1J2cDB1tl-67" value="BidexLog" style="rounded=1;whiteSpace=wrap;html=1;strokeWidth=2;fillWeight=4;hachureGap=8;hachureAngle=45;fillColor=#fff2cc;fontStyle=1;strokeColor=#d6b656;" parent="1" vertex="1">
          <mxGeometry x="400" y="600" width="120" height="40" as="geometry" />
        </mxCell>
        <mxCell id="BLwkt3QH4of1J2cDB1tl-68" value="BidexObject" style="rounded=1;whiteSpace=wrap;html=1;strokeWidth=2;fillWeight=4;hachureGap=8;hachureAngle=45;fillColor=#fff2cc;fontStyle=1;strokeColor=#d6b656;" parent="1" vertex="1">
          <mxGeometry x="-180" y="800" width="120" height="40" as="geometry" />
        </mxCell>
        <mxCell id="BLwkt3QH4of1J2cDB1tl-69" value="" style="endArrow=classic;html=1;rounded=0;exitX=0.5;exitY=1;exitDx=0;exitDy=0;entryX=0.5;entryY=0;entryDx=0;entryDy=0;" parent="1" source="BLwkt3QH4of1J2cDB1tl-60" target="BLwkt3QH4of1J2cDB1tl-68" edge="1">
          <mxGeometry width="50" height="50" relative="1" as="geometry">
            <mxPoint x="-130" y="550" as="sourcePoint" />
            <mxPoint x="-140" y="990" as="targetPoint" />
          </mxGeometry>
        </mxCell>
        <mxCell id="BLwkt3QH4of1J2cDB1tl-70" value="" style="endArrow=classic;html=1;rounded=0;exitX=0.5;exitY=1;exitDx=0;exitDy=0;entryX=0.5;entryY=0;entryDx=0;entryDy=0;" parent="1" source="BLwkt3QH4of1J2cDB1tl-67" target="BLwkt3QH4of1J2cDB1tl-64" edge="1">
          <mxGeometry width="50" height="50" relative="1" as="geometry">
            <mxPoint x="470" y="760" as="sourcePoint" />
            <mxPoint x="470" y="800" as="targetPoint" />
          </mxGeometry>
        </mxCell>
        <mxCell id="BLwkt3QH4of1J2cDB1tl-71" value="" style="endArrow=classic;html=1;rounded=0;exitX=0.5;exitY=1;exitDx=0;exitDy=0;entryX=1;entryY=0.5;entryDx=0;entryDy=0;" parent="1" source="BLwkt3QH4of1J2cDB1tl-64" target="BLwkt3QH4of1J2cDB1tl-68" edge="1">
          <mxGeometry width="50" height="50" relative="1" as="geometry">
            <mxPoint x="130" y="950" as="sourcePoint" />
            <mxPoint x="130" y="990" as="targetPoint" />
            <Array as="points">
              <mxPoint x="460" y="820" />
            </Array>
          </mxGeometry>
        </mxCell>
        <mxCell id="BLwkt3QH4of1J2cDB1tl-72" value="&lt;span style=&quot;font-size: 15px;&quot;&gt;&lt;b&gt;入库fluem等&lt;/b&gt;&lt;/span&gt;" style="rounded=1;whiteSpace=wrap;html=1;strokeWidth=2;fillWeight=4;hachureGap=8;hachureAngle=45;fillColor=#d5e8d4;strokeColor=#82b366;" parent="1" vertex="1">
          <mxGeometry x="-20" y="880" width="120" height="80" as="geometry" />
        </mxCell>
        <mxCell id="BLwkt3QH4of1J2cDB1tl-73" value="" style="endArrow=classic;html=1;rounded=0;exitX=0.5;exitY=1;exitDx=0;exitDy=0;entryX=0;entryY=0.5;entryDx=0;entryDy=0;" parent="1" source="BLwkt3QH4of1J2cDB1tl-68" target="BLwkt3QH4of1J2cDB1tl-72" edge="1">
          <mxGeometry width="50" height="50" relative="1" as="geometry">
            <mxPoint x="-130" y="870" as="sourcePoint" />
            <mxPoint x="-130" y="1150" as="targetPoint" />
            <Array as="points">
              <mxPoint x="-120" y="920" />
            </Array>
          </mxGeometry>
        </mxCell>
        <mxCell id="BLwkt3QH4of1J2cDB1tl-74" value="" style="endArrow=classic;html=1;rounded=0;exitX=1;exitY=0.5;exitDx=0;exitDy=0;entryX=0;entryY=0.5;entryDx=0;entryDy=0;entryPerimeter=0;" parent="1" source="BLwkt3QH4of1J2cDB1tl-72" target="BLwkt3QH4of1J2cDB1tl-75" edge="1">
          <mxGeometry width="50" height="50" relative="1" as="geometry">
            <mxPoint x="130" y="850" as="sourcePoint" />
            <mxPoint x="320" y="1140" as="targetPoint" />
          </mxGeometry>
        </mxCell>
        <mxCell id="BLwkt3QH4of1J2cDB1tl-75" value="&lt;b style=&quot;border-color: var(--border-color); font-size: 15px;&quot;&gt;clickhouse&lt;/b&gt;" style="shape=cylinder3;whiteSpace=wrap;html=1;boundedLbl=1;backgroundOutline=1;size=15;fillColor=#e1d5e7;strokeColor=#9673a6;" parent="1" vertex="1">
          <mxGeometry x="220" y="880" width="140" height="80" as="geometry" />
        </mxCell>
        <mxCell id="BLwkt3QH4of1J2cDB1tl-76" value="bidlog文件" style="shape=parallelogram;perimeter=parallelogramPerimeter;whiteSpace=wrap;html=1;fixedSize=1;fontStyle=1;fillColor=#b0e3e6;strokeColor=#0e8088;" parent="1" vertex="1">
          <mxGeometry x="-180" y="520" width="120" height="40" as="geometry" />
        </mxCell>
        <mxCell id="BLwkt3QH4of1J2cDB1tl-77" value="" style="endArrow=classic;html=1;rounded=0;exitX=0.5;exitY=1;exitDx=0;exitDy=0;entryX=0.5;entryY=0;entryDx=0;entryDy=0;" parent="1" source="BLwkt3QH4of1J2cDB1tl-76" target="BLwkt3QH4of1J2cDB1tl-60" edge="1">
          <mxGeometry width="50" height="50" relative="1" as="geometry">
            <mxPoint x="-130" y="710" as="sourcePoint" />
            <mxPoint x="-130" y="790" as="targetPoint" />
          </mxGeometry>
        </mxCell>
        <mxCell id="BLwkt3QH4of1J2cDB1tl-78" value="策略维度" style="text;strokeColor=none;fillColor=none;html=1;fontSize=15;fontStyle=1;verticalAlign=middle;align=center;fontColor=#FF0000;" parent="1" vertex="1">
          <mxGeometry x="460" y="440" width="80" height="40" as="geometry" />
        </mxCell>
        <mxCell id="BLwkt3QH4of1J2cDB1tl-81" value="" style="endArrow=classic;html=1;rounded=0;exitX=0.5;exitY=1;exitDx=0;exitDy=0;entryX=0.5;entryY=0;entryDx=0;entryDy=0;" parent="1" source="BLwkt3QH4of1J2cDB1tl-27" target="BLwkt3QH4of1J2cDB1tl-61" edge="1">
          <mxGeometry width="50" height="50" relative="1" as="geometry">
            <mxPoint x="470" y="410" as="sourcePoint" />
            <mxPoint x="470" y="590" as="targetPoint" />
          </mxGeometry>
        </mxCell>
        <mxCell id="BLwkt3QH4of1J2cDB1tl-82" value="策略维度" style="text;strokeColor=none;fillColor=none;html=1;fontSize=15;fontStyle=1;verticalAlign=middle;align=center;fontColor=#FF0000;" parent="1" vertex="1">
          <mxGeometry x="-120" y="440" width="80" height="40" as="geometry" />
        </mxCell>
        <mxCell id="BLwkt3QH4of1J2cDB1tl-83" value="策略的启停" style="text;strokeColor=none;fillColor=none;html=1;fontSize=15;fontStyle=1;verticalAlign=middle;align=center;fontColor=#FF0000;" parent="1" vertex="1">
          <mxGeometry x="-50" y="360" width="100" height="40" as="geometry" />
        </mxCell>
        <mxCell id="BLwkt3QH4of1J2cDB1tl-84" value="策略维度" style="text;strokeColor=none;fillColor=none;html=1;fontSize=15;fontStyle=1;verticalAlign=middle;align=center;fontColor=#FF0000;" parent="1" vertex="1">
          <mxGeometry x="120" y="880" width="80" height="40" as="geometry" />
        </mxCell>
        <mxCell id="BLwkt3QH4of1J2cDB1tl-85" value="策略维度" style="text;strokeColor=none;fillColor=none;html=1;fontSize=15;fontStyle=1;verticalAlign=middle;align=center;fontColor=#FF0000;" parent="1" vertex="1">
          <mxGeometry x="400" y="880" width="80" height="40" as="geometry" />
        </mxCell>
      </root>
    </mxGraphModel>
  </diagram>
</mxfile>
